<mxfile host="65bd71144e">
    <diagram id="fjN8D4Odn0497USpxgly" name="Page-1">
        <mxGraphModel dx="3346" dy="1117" grid="1" gridSize="10" guides="1" tooltips="1" connect="1" arrows="1" fold="1" page="1" pageScale="1" pageWidth="1169" pageHeight="827" background="#FFFFFF" math="0" shadow="0">
            <root>
                <mxCell id="0"/>
                <mxCell id="1" parent="0"/>
                <mxCell id="274" value="" style="rounded=0;whiteSpace=wrap;html=1;strokeColor=none;" vertex="1" parent="1">
                    <mxGeometry x="-1169" width="1321" height="1010" as="geometry"/>
                </mxCell>
                <mxCell id="163" style="edgeStyle=orthogonalEdgeStyle;html=1;rounded=0;" parent="1" source="161" target="166" edge="1">
                    <mxGeometry relative="1" as="geometry">
                        <mxPoint x="-908" y="70" as="sourcePoint"/>
                        <mxPoint x="-708" y="140" as="targetPoint"/>
                    </mxGeometry>
                </mxCell>
                <mxCell id="161" value="main()" style="rounded=0;whiteSpace=wrap;html=1;" parent="1" vertex="1">
                    <mxGeometry x="-788" y="10" width="470" height="90" as="geometry"/>
                </mxCell>
                <mxCell id="189" style="edgeStyle=elbowEdgeStyle;rounded=0;html=1;" edge="1" parent="1" source="166" target="188">
                    <mxGeometry relative="1" as="geometry"/>
                </mxCell>
                <mxCell id="166" value="registry_get_value(&quot;cord/0/rd_ip_addr&quot;)" style="rounded=0;whiteSpace=wrap;html=1;" parent="1" vertex="1">
                    <mxGeometry x="-1158" y="180" width="220" height="60" as="geometry"/>
                </mxCell>
                <mxCell id="181" value="registry_set_value(&quot;application/0/foo&quot;, &quot;bar&quot;)" style="rounded=0;whiteSpace=wrap;html=1;" vertex="1" parent="1">
                    <mxGeometry x="-828" y="180" width="220" height="60" as="geometry"/>
                </mxCell>
                <mxCell id="183" style="edgeStyle=elbowEdgeStyle;html=1;rounded=0;entryX=0.5;entryY=0;entryDx=0;entryDy=0;" edge="1" parent="1" source="161" target="185">
                    <mxGeometry relative="1" as="geometry">
                        <mxPoint x="-608" y="110" as="sourcePoint"/>
                        <mxPoint x="-588" y="190" as="targetPoint"/>
                    </mxGeometry>
                </mxCell>
                <mxCell id="184" value="registry_export(&quot;application/0&quot;, my_export_function)" style="rounded=0;whiteSpace=wrap;html=1;" vertex="1" parent="1">
                    <mxGeometry x="-168" y="180" width="220" height="60" as="geometry"/>
                </mxCell>
                <mxCell id="185" value="registry_commit(&quot;cord/0&quot;)" style="rounded=0;whiteSpace=wrap;html=1;" vertex="1" parent="1">
                    <mxGeometry x="-498" y="180" width="220" height="60" as="geometry"/>
                </mxCell>
                <mxCell id="186" style="edgeStyle=orthogonalEdgeStyle;html=1;rounded=0;" edge="1" parent="1" source="161" target="184">
                    <mxGeometry relative="1" as="geometry">
                        <mxPoint x="-598" y="120" as="sourcePoint"/>
                        <mxPoint x="-578" y="200" as="targetPoint"/>
                    </mxGeometry>
                </mxCell>
                <mxCell id="187" style="edgeStyle=elbowEdgeStyle;html=1;rounded=0;entryX=0.5;entryY=0;entryDx=0;entryDy=0;" edge="1" parent="1" source="161" target="181">
                    <mxGeometry relative="1" as="geometry">
                        <mxPoint x="-573" y="110" as="sourcePoint"/>
                        <mxPoint x="-648" y="150" as="targetPoint"/>
                    </mxGeometry>
                </mxCell>
                <mxCell id="191" style="edgeStyle=elbowEdgeStyle;rounded=0;html=1;" edge="1" parent="1" source="188" target="192">
                    <mxGeometry relative="1" as="geometry">
                        <mxPoint x="-1048" y="380" as="targetPoint"/>
                    </mxGeometry>
                </mxCell>
                <mxCell id="188" value="Search for &quot;cord&quot; configuration schema" style="rounded=0;whiteSpace=wrap;html=1;" vertex="1" parent="1">
                    <mxGeometry x="-1113" y="280" width="130" height="60" as="geometry"/>
                </mxCell>
                <mxCell id="194" value="No" style="edgeStyle=elbowEdgeStyle;rounded=0;html=1;" edge="1" parent="1" source="192" target="198">
                    <mxGeometry relative="1" as="geometry">
                        <mxPoint x="-948" y="420" as="targetPoint"/>
                        <mxPoint as="offset"/>
                    </mxGeometry>
                </mxCell>
                <mxCell id="200" value="Yes" style="edgeStyle=elbowEdgeStyle;rounded=0;html=1;" edge="1" parent="1" source="192" target="208">
                    <mxGeometry relative="1" as="geometry">
                        <mxPoint x="-1048" y="490" as="targetPoint"/>
                    </mxGeometry>
                </mxCell>
                <mxCell id="192" value="Found cs" style="rhombus;whiteSpace=wrap;html=1;" vertex="1" parent="1">
                    <mxGeometry x="-1088" y="380" width="80" height="80" as="geometry"/>
                </mxCell>
                <mxCell id="198" value="Return&lt;br&gt;ENOTFOUND" style="rounded=1;whiteSpace=wrap;html=1;arcSize=50;" vertex="1" parent="1">
                    <mxGeometry x="-968" y="390" width="120" height="60" as="geometry"/>
                </mxCell>
                <mxCell id="206" style="edgeStyle=elbowEdgeStyle;rounded=0;html=1;" edge="1" parent="1" source="199" target="205">
                    <mxGeometry relative="1" as="geometry"/>
                </mxCell>
                <mxCell id="199" value="cs-&amp;gt;get(&quot;rd_ip_addr&quot;, si)" style="rounded=0;whiteSpace=wrap;html=1;" vertex="1" parent="1">
                    <mxGeometry x="-1113" y="720" width="130" height="60" as="geometry"/>
                </mxCell>
                <mxCell id="201" value="No" style="edgeStyle=elbowEdgeStyle;rounded=0;html=1;" edge="1" parent="1" target="202" source="205">
                    <mxGeometry relative="1" as="geometry">
                        <mxPoint x="-1113" y="740" as="sourcePoint"/>
                        <mxPoint x="-1053" y="740" as="targetPoint"/>
                        <mxPoint as="offset"/>
                    </mxGeometry>
                </mxCell>
                <mxCell id="202" value="Return&lt;br&gt;ENOTFOUND" style="rounded=1;whiteSpace=wrap;html=1;arcSize=50;" vertex="1" parent="1">
                    <mxGeometry x="-968" y="830" width="120" height="60" as="geometry"/>
                </mxCell>
                <mxCell id="203" value="Yes" style="edgeStyle=elbowEdgeStyle;rounded=0;html=1;" edge="1" parent="1" target="204" source="205">
                    <mxGeometry relative="1" as="geometry">
                        <mxPoint x="-1233" y="890" as="sourcePoint"/>
                        <mxPoint x="-1173" y="890" as="targetPoint"/>
                        <mxPoint as="offset"/>
                    </mxGeometry>
                </mxCell>
                <mxCell id="204" value="Get value of &quot;rd_ip_addr&quot;" style="rounded=1;whiteSpace=wrap;html=1;arcSize=50;" vertex="1" parent="1">
                    <mxGeometry x="-1108" y="940" width="120" height="60" as="geometry"/>
                </mxCell>
                <mxCell id="205" value="Valid" style="rhombus;whiteSpace=wrap;html=1;" vertex="1" parent="1">
                    <mxGeometry x="-1088" y="820" width="80" height="80" as="geometry"/>
                </mxCell>
                <mxCell id="207" style="edgeStyle=elbowEdgeStyle;rounded=0;html=1;" edge="1" parent="1" source="208" target="211">
                    <mxGeometry relative="1" as="geometry">
                        <mxPoint x="-1048" y="600" as="targetPoint"/>
                    </mxGeometry>
                </mxCell>
                <mxCell id="208" value="Search for &quot;0&quot; schema instance" style="rounded=0;whiteSpace=wrap;html=1;" vertex="1" parent="1">
                    <mxGeometry x="-1113" y="500" width="130" height="60" as="geometry"/>
                </mxCell>
                <mxCell id="209" value="No" style="edgeStyle=elbowEdgeStyle;rounded=0;html=1;" edge="1" parent="1" source="211" target="212">
                    <mxGeometry relative="1" as="geometry">
                        <mxPoint x="-948" y="640" as="targetPoint"/>
                        <mxPoint as="offset"/>
                    </mxGeometry>
                </mxCell>
                <mxCell id="210" value="Yes" style="edgeStyle=elbowEdgeStyle;rounded=0;html=1;" edge="1" parent="1" source="211" target="199">
                    <mxGeometry relative="1" as="geometry">
                        <mxPoint x="-1048" y="710" as="targetPoint"/>
                    </mxGeometry>
                </mxCell>
                <mxCell id="211" value="Found si" style="rhombus;whiteSpace=wrap;html=1;" vertex="1" parent="1">
                    <mxGeometry x="-1088" y="600" width="80" height="80" as="geometry"/>
                </mxCell>
                <mxCell id="212" value="Return&lt;br&gt;ENOTFOUND" style="rounded=1;whiteSpace=wrap;html=1;arcSize=50;" vertex="1" parent="1">
                    <mxGeometry x="-968" y="610" width="120" height="60" as="geometry"/>
                </mxCell>
                <mxCell id="213" style="edgeStyle=elbowEdgeStyle;rounded=0;html=1;" edge="1" parent="1" target="215" source="181">
                    <mxGeometry relative="1" as="geometry">
                        <mxPoint x="-713" y="240" as="sourcePoint"/>
                    </mxGeometry>
                </mxCell>
                <mxCell id="214" style="edgeStyle=elbowEdgeStyle;rounded=0;html=1;" edge="1" parent="1" source="215" target="218">
                    <mxGeometry relative="1" as="geometry">
                        <mxPoint x="-719" y="379" as="targetPoint"/>
                    </mxGeometry>
                </mxCell>
                <mxCell id="215" value="Search for &quot;application&quot; configuration schema" style="rounded=0;whiteSpace=wrap;html=1;" vertex="1" parent="1">
                    <mxGeometry x="-784" y="279" width="130" height="60" as="geometry"/>
                </mxCell>
                <mxCell id="216" value="No" style="edgeStyle=elbowEdgeStyle;rounded=0;html=1;" edge="1" parent="1" source="218" target="219">
                    <mxGeometry relative="1" as="geometry">
                        <mxPoint x="-619" y="419" as="targetPoint"/>
                        <mxPoint as="offset"/>
                    </mxGeometry>
                </mxCell>
                <mxCell id="217" value="Yes" style="edgeStyle=elbowEdgeStyle;rounded=0;html=1;" edge="1" parent="1" source="218" target="228">
                    <mxGeometry relative="1" as="geometry">
                        <mxPoint x="-719" y="489" as="targetPoint"/>
                    </mxGeometry>
                </mxCell>
                <mxCell id="218" value="Found cs" style="rhombus;whiteSpace=wrap;html=1;" vertex="1" parent="1">
                    <mxGeometry x="-759" y="379" width="80" height="80" as="geometry"/>
                </mxCell>
                <mxCell id="219" value="Return&lt;br&gt;ENOTFOUND" style="rounded=1;whiteSpace=wrap;html=1;arcSize=50;" vertex="1" parent="1">
                    <mxGeometry x="-639" y="389" width="120" height="60" as="geometry"/>
                </mxCell>
                <mxCell id="220" style="edgeStyle=elbowEdgeStyle;rounded=0;html=1;" edge="1" parent="1" source="221" target="226">
                    <mxGeometry relative="1" as="geometry"/>
                </mxCell>
                <mxCell id="221" value="cs-&amp;gt;set(&quot;foo&quot;, si, &quot;bar&quot;)" style="rounded=0;whiteSpace=wrap;html=1;" vertex="1" parent="1">
                    <mxGeometry x="-784" y="719" width="130" height="60" as="geometry"/>
                </mxCell>
                <mxCell id="222" value="No" style="edgeStyle=elbowEdgeStyle;rounded=0;html=1;" edge="1" parent="1" source="226" target="223">
                    <mxGeometry relative="1" as="geometry">
                        <mxPoint x="-784" y="739" as="sourcePoint"/>
                        <mxPoint x="-724" y="739" as="targetPoint"/>
                        <mxPoint as="offset"/>
                    </mxGeometry>
                </mxCell>
                <mxCell id="223" value="Return&lt;br&gt;ENOTFOUND&lt;br&gt;or EINVAL" style="rounded=1;whiteSpace=wrap;html=1;arcSize=50;" vertex="1" parent="1">
                    <mxGeometry x="-639" y="829" width="120" height="60" as="geometry"/>
                </mxCell>
                <mxCell id="224" value="Yes" style="edgeStyle=elbowEdgeStyle;rounded=0;html=1;" edge="1" parent="1" source="226" target="225">
                    <mxGeometry relative="1" as="geometry">
                        <mxPoint x="-904" y="889" as="sourcePoint"/>
                        <mxPoint x="-844" y="889" as="targetPoint"/>
                        <mxPoint as="offset"/>
                    </mxGeometry>
                </mxCell>
                <mxCell id="225" value="Set value of &quot;foo&quot; to &quot;bar&quot;" style="rounded=1;whiteSpace=wrap;html=1;arcSize=50;" vertex="1" parent="1">
                    <mxGeometry x="-779" y="939" width="120" height="60" as="geometry"/>
                </mxCell>
                <mxCell id="226" value="Valid" style="rhombus;whiteSpace=wrap;html=1;" vertex="1" parent="1">
                    <mxGeometry x="-759" y="819" width="80" height="80" as="geometry"/>
                </mxCell>
                <mxCell id="227" style="edgeStyle=elbowEdgeStyle;rounded=0;html=1;" edge="1" parent="1" source="228" target="231">
                    <mxGeometry relative="1" as="geometry">
                        <mxPoint x="-719" y="599" as="targetPoint"/>
                    </mxGeometry>
                </mxCell>
                <mxCell id="228" value="Search for &quot;0&quot; schema instance" style="rounded=0;whiteSpace=wrap;html=1;" vertex="1" parent="1">
                    <mxGeometry x="-784" y="499" width="130" height="60" as="geometry"/>
                </mxCell>
                <mxCell id="229" value="No" style="edgeStyle=elbowEdgeStyle;rounded=0;html=1;" edge="1" parent="1" source="231" target="232">
                    <mxGeometry relative="1" as="geometry">
                        <mxPoint x="-619" y="639" as="targetPoint"/>
                        <mxPoint as="offset"/>
                    </mxGeometry>
                </mxCell>
                <mxCell id="230" value="Yes" style="edgeStyle=elbowEdgeStyle;rounded=0;html=1;" edge="1" parent="1" source="231" target="221">
                    <mxGeometry relative="1" as="geometry">
                        <mxPoint x="-719" y="709" as="targetPoint"/>
                    </mxGeometry>
                </mxCell>
                <mxCell id="231" value="Found si" style="rhombus;whiteSpace=wrap;html=1;" vertex="1" parent="1">
                    <mxGeometry x="-759" y="599" width="80" height="80" as="geometry"/>
                </mxCell>
                <mxCell id="232" value="Return&lt;br&gt;ENOTFOUND" style="rounded=1;whiteSpace=wrap;html=1;arcSize=50;" vertex="1" parent="1">
                    <mxGeometry x="-639" y="609" width="120" height="60" as="geometry"/>
                </mxCell>
                <mxCell id="233" style="edgeStyle=elbowEdgeStyle;rounded=0;html=1;" edge="1" parent="1" target="235" source="185">
                    <mxGeometry relative="1" as="geometry">
                        <mxPoint x="-389" y="241" as="sourcePoint"/>
                    </mxGeometry>
                </mxCell>
                <mxCell id="234" style="edgeStyle=elbowEdgeStyle;rounded=0;html=1;" edge="1" parent="1" source="235" target="238">
                    <mxGeometry relative="1" as="geometry">
                        <mxPoint x="-389" y="380" as="targetPoint"/>
                    </mxGeometry>
                </mxCell>
                <mxCell id="235" value="Search for &quot;cord&quot; configuration schema" style="rounded=0;whiteSpace=wrap;html=1;" vertex="1" parent="1">
                    <mxGeometry x="-454" y="280" width="130" height="60" as="geometry"/>
                </mxCell>
                <mxCell id="236" value="No" style="edgeStyle=elbowEdgeStyle;rounded=0;html=1;" edge="1" parent="1" source="238" target="239">
                    <mxGeometry relative="1" as="geometry">
                        <mxPoint x="-289" y="420" as="targetPoint"/>
                        <mxPoint as="offset"/>
                    </mxGeometry>
                </mxCell>
                <mxCell id="237" value="Yes" style="edgeStyle=elbowEdgeStyle;rounded=0;html=1;" edge="1" parent="1" source="238" target="248">
                    <mxGeometry relative="1" as="geometry">
                        <mxPoint x="-389" y="490" as="targetPoint"/>
                    </mxGeometry>
                </mxCell>
                <mxCell id="238" value="Found cs" style="rhombus;whiteSpace=wrap;html=1;" vertex="1" parent="1">
                    <mxGeometry x="-429" y="380" width="80" height="80" as="geometry"/>
                </mxCell>
                <mxCell id="239" value="Return&lt;br&gt;ENOTFOUND" style="rounded=1;whiteSpace=wrap;html=1;arcSize=50;" vertex="1" parent="1">
                    <mxGeometry x="-309" y="390" width="120" height="60" as="geometry"/>
                </mxCell>
                <mxCell id="240" style="edgeStyle=elbowEdgeStyle;rounded=0;html=1;" edge="1" parent="1" source="241" target="245">
                    <mxGeometry relative="1" as="geometry">
                        <mxPoint x="-389" y="820" as="targetPoint"/>
                    </mxGeometry>
                </mxCell>
                <mxCell id="241" value="si-&amp;gt;commit_cb(&quot;cord&quot;)" style="rounded=0;whiteSpace=wrap;html=1;" vertex="1" parent="1">
                    <mxGeometry x="-454" y="720" width="130" height="60" as="geometry"/>
                </mxCell>
                <mxCell id="245" value="Configuration changes for &quot;cord/0&quot; take effect&amp;nbsp;" style="rounded=1;whiteSpace=wrap;html=1;arcSize=50;" vertex="1" parent="1">
                    <mxGeometry x="-449" y="820" width="120" height="60" as="geometry"/>
                </mxCell>
                <mxCell id="247" style="edgeStyle=elbowEdgeStyle;rounded=0;html=1;" edge="1" parent="1" source="248" target="251">
                    <mxGeometry relative="1" as="geometry">
                        <mxPoint x="-389" y="600" as="targetPoint"/>
                    </mxGeometry>
                </mxCell>
                <mxCell id="248" value="Search for &quot;0&quot; schema instance" style="rounded=0;whiteSpace=wrap;html=1;" vertex="1" parent="1">
                    <mxGeometry x="-454" y="500" width="130" height="60" as="geometry"/>
                </mxCell>
                <mxCell id="249" value="No" style="edgeStyle=elbowEdgeStyle;rounded=0;html=1;" edge="1" parent="1" source="251" target="252">
                    <mxGeometry relative="1" as="geometry">
                        <mxPoint x="-289" y="640" as="targetPoint"/>
                        <mxPoint as="offset"/>
                    </mxGeometry>
                </mxCell>
                <mxCell id="250" value="Yes" style="edgeStyle=elbowEdgeStyle;rounded=0;html=1;" edge="1" parent="1" source="251" target="241">
                    <mxGeometry relative="1" as="geometry">
                        <mxPoint x="-389" y="710" as="targetPoint"/>
                    </mxGeometry>
                </mxCell>
                <mxCell id="251" value="Found si" style="rhombus;whiteSpace=wrap;html=1;" vertex="1" parent="1">
                    <mxGeometry x="-429" y="600" width="80" height="80" as="geometry"/>
                </mxCell>
                <mxCell id="252" value="Return&lt;br&gt;ENOTFOUND" style="rounded=1;whiteSpace=wrap;html=1;arcSize=50;" vertex="1" parent="1">
                    <mxGeometry x="-309" y="610" width="120" height="60" as="geometry"/>
                </mxCell>
                <mxCell id="253" style="edgeStyle=elbowEdgeStyle;rounded=0;html=1;" edge="1" parent="1" target="255" source="184">
                    <mxGeometry relative="1" as="geometry">
                        <mxPoint x="-168" y="270" as="sourcePoint"/>
                    </mxGeometry>
                </mxCell>
                <mxCell id="254" style="edgeStyle=elbowEdgeStyle;rounded=0;html=1;" edge="1" parent="1" source="255" target="258">
                    <mxGeometry relative="1" as="geometry">
                        <mxPoint x="-59" y="379" as="targetPoint"/>
                    </mxGeometry>
                </mxCell>
                <mxCell id="255" value="Search for &quot;application&quot; configuration schema" style="rounded=0;whiteSpace=wrap;html=1;" vertex="1" parent="1">
                    <mxGeometry x="-124" y="279" width="130" height="60" as="geometry"/>
                </mxCell>
                <mxCell id="256" value="No" style="edgeStyle=elbowEdgeStyle;rounded=0;html=1;" edge="1" parent="1" source="258" target="259">
                    <mxGeometry relative="1" as="geometry">
                        <mxPoint x="41" y="419" as="targetPoint"/>
                        <mxPoint as="offset"/>
                    </mxGeometry>
                </mxCell>
                <mxCell id="257" value="Yes" style="edgeStyle=elbowEdgeStyle;rounded=0;html=1;" edge="1" parent="1" source="258" target="268">
                    <mxGeometry relative="1" as="geometry">
                        <mxPoint x="-59" y="489" as="targetPoint"/>
                    </mxGeometry>
                </mxCell>
                <mxCell id="258" value="Found cs" style="rhombus;whiteSpace=wrap;html=1;" vertex="1" parent="1">
                    <mxGeometry x="-99" y="379" width="80" height="80" as="geometry"/>
                </mxCell>
                <mxCell id="259" value="Return&lt;br&gt;ENOTFOUND" style="rounded=1;whiteSpace=wrap;html=1;arcSize=50;" vertex="1" parent="1">
                    <mxGeometry x="21" y="389" width="120" height="60" as="geometry"/>
                </mxCell>
                <mxCell id="265" value="Call my_export_function&lt;br&gt;on each configuration in application" style="rounded=1;whiteSpace=wrap;html=1;arcSize=50;" vertex="1" parent="1">
                    <mxGeometry x="-133" y="719" width="150" height="71" as="geometry"/>
                </mxCell>
                <mxCell id="267" style="edgeStyle=elbowEdgeStyle;rounded=0;html=1;" edge="1" parent="1" source="268" target="271">
                    <mxGeometry relative="1" as="geometry">
                        <mxPoint x="-59" y="599" as="targetPoint"/>
                    </mxGeometry>
                </mxCell>
                <mxCell id="268" value="Call registry_get_value() for each configuration in &quot;application&quot;" style="rounded=0;whiteSpace=wrap;html=1;" vertex="1" parent="1">
                    <mxGeometry x="-127" y="500" width="136" height="60" as="geometry"/>
                </mxCell>
                <mxCell id="269" value="No" style="edgeStyle=elbowEdgeStyle;rounded=0;html=1;" edge="1" parent="1" source="271" target="272">
                    <mxGeometry relative="1" as="geometry">
                        <mxPoint x="41" y="639" as="targetPoint"/>
                        <mxPoint as="offset"/>
                    </mxGeometry>
                </mxCell>
                <mxCell id="270" value="Yes" style="edgeStyle=elbowEdgeStyle;rounded=0;html=1;" edge="1" parent="1" source="271" target="265">
                    <mxGeometry relative="1" as="geometry">
                        <mxPoint x="-59" y="719" as="targetPoint"/>
                    </mxGeometry>
                </mxCell>
                <mxCell id="271" value="Valid" style="rhombus;whiteSpace=wrap;html=1;" vertex="1" parent="1">
                    <mxGeometry x="-99" y="599" width="80" height="80" as="geometry"/>
                </mxCell>
                <mxCell id="272" value="Return&lt;br&gt;ENOTFOUND" style="rounded=1;whiteSpace=wrap;html=1;arcSize=50;" vertex="1" parent="1">
                    <mxGeometry x="21" y="609" width="120" height="60" as="geometry"/>
                </mxCell>
            </root>
        </mxGraphModel>
    </diagram>
</mxfile>